<?xml version="1.0" encoding="utf-8"?>
<!-- Generator: Adobe Illustrator 28.0.0, SVG Export Plug-In . SVG Version: 6.00 Build 0)  -->
<svg version="1.1" xmlns="http://www.w3.org/2000/svg" xmlns:xlink="http://www.w3.org/1999/xlink" x="0px" y="0px"
	 viewBox="0 0 1080 300" style="enable-background:new 0 0 1080 300;" xml:space="preserve">
<style type="text/css">
	.st0{fill:none;}
	.st1{fill:#E58E1A;}
	.st2{fill:#FFCE33;}
	.st3{fill:#FFEB44;}
	.st4{fill:url(#SVGID_1_);}
	.st5{fill:url(#SVGID_00000110454586677016714100000017856904028937279363_);}
	.st6{fill:url(#SVGID_00000044863902977300221750000006204205338017741243_);}
	.st7{opacity:0.5;fill:#FFF4DE;}
	.st8{fill:#542020;}
	.st9{fill:#331313;}
	.st10{fill:#E27F1B;}
	.st11{fill:url(#SVGID_00000144330742711529133250000015602427716954396035_);}
	.st12{fill:url(#SVGID_00000121252078696550542160000016697390891713954979_);}
	.st13{fill:url(#SVGID_00000183944303092877606790000012634637194454598021_);}
	.st14{fill:url(#SVGID_00000089570416817861561250000017621037874186869911_);}
	.st15{fill:url(#SVGID_00000124880098018272565160000010499971670198686874_);}
	.st16{fill:url(#SVGID_00000039842524582492207480000000293440563050680487_);}
	.st17{fill:url(#SVGID_00000008137907597615768740000010697239826135026309_);}
	.st18{fill:url(#SVGID_00000124844526392545461570000010198026903222581917_);}
	.st19{fill:url(#SVGID_00000053526419521998321000000002871293813968440762_);}
	.st20{fill:url(#SVGID_00000137093917048123882410000014497589136641110183_);}
	.st21{fill:url(#SVGID_00000132789436293149887210000008499031202135889328_);}
	.st22{fill:url(#SVGID_00000139279318201623207720000011904673432002620334_);}
	.st23{fill:url(#SVGID_00000039107724158232845640000002032516295066704551_);}
	.st24{fill:url(#SVGID_00000173128122424381419730000016056864417681853111_);}
	.st25{fill:url(#SVGID_00000141447440658483043170000017252492712932105110_);}
	.st26{fill:url(#SVGID_00000070100169427671608090000003465183500631808407_);}
	.st27{fill:url(#SVGID_00000047033898089864964010000007970381876154717589_);}
	.st28{fill:url(#SVGID_00000054240375424679913380000010639597964762060175_);}
	.st29{fill:url(#SVGID_00000035518701486337698470000013576422042443849385_);}
	.st30{fill:url(#SVGID_00000124124539172431839250000004012769990019862677_);}
	.st31{fill:url(#SVGID_00000043433431547168564480000005893812875377595839_);}
	.st32{fill:url(#SVGID_00000155848534580294327300000008371198661992897211_);}
	.st33{fill:url(#SVGID_00000140705917338529697580000009255161346240762505_);}
	.st34{fill:url(#SVGID_00000154414076716186221740000013780442112139848091_);}
	.st35{fill:#F97316;}
	.st36{fill:url(#SVGID_00000064316354034171430800000016380939305578038425_);}
	.st37{fill:#FFFFFF;}
	.st38{fill:#2D2D2D;}
	.st39{fill:#F0C72F;}
</style>
<pattern  x="247" y="-233.3" width="269.4" height="265.6" patternUnits="userSpaceOnUse" id="New_Pattern" viewBox="64.4 -326.2 269.4 265.6" style="overflow:visible;">
	<g>
		<rect x="64.4" y="-326.2" class="st0" width="269.4" height="265.6"/>
		<g>
			<g>
				<g>
					<path class="st1" d="M380.1-105.5c-0.7-4.2-3.9-6.8-8.2-8.6c1.1,1.2,1.8,2.6,2,4.3c1.7,10.2-26.9,53.3-73.1,41.2
						c-16.5-4.3-25.4-11.2-29.8-18.8c3.3,9.7,12.5,19.2,33.2,24.6C352.1-50.2,381.8-94.9,380.1-105.5z"/>
					<path class="st2" d="M300.8-68.5c46.2,12,74.8-31,73.1-41.2c-0.3-1.7-1-3.1-2-4.3c-6.7-2.8-15.8-3.7-21.3-5.5
						c-9.1-2.8-22.4-13.9-39-18.3c-14.9-3.9-29.1,9-35.8,19.5c-3.3,5.1-9.1,18.3-4.8,31C275.3-79.8,284.3-72.8,300.8-68.5z"/>
				</g>
				<path class="st3" d="M277.5-119.2c4.7-7.3,14.6-16.3,24.9-13.6c11.6,3,20.8,10.8,27.1,12.7c6.3,2,19.3,2.4,20.5,9.8
					s-19.5,38.5-52.8,29.8C263.9-89.2,273.5-112.9,277.5-119.2z"/>
				<g>
					
						<linearGradient id="SVGID_1_" gradientUnits="userSpaceOnUse" x1="-1545.6754" y1="-14705.6426" x2="-1525.5886" y2="-14705.6426" gradientTransform="matrix(0.9777 -0.2098 -0.2098 -0.9777 -1307.4734 -14838.6914)">
						<stop  offset="2.925530e-02" style="stop-color:#075F37"/>
						<stop  offset="1" style="stop-color:#078837"/>
					</linearGradient>
					<path class="st4" d="M279.3-120.5c0,0,9.7-7.9,7-20c-2.7-12-10.6-10.9-12.4-15.7c-1.8-4.8-9,13.1-7,21
						C269-127.3,279.3-120.5,279.3-120.5z"/>
					
						<linearGradient id="SVGID_00000145773942101492804260000011607250078142781581_" gradientUnits="userSpaceOnUse" x1="-1538.709" y1="-14710.498" x2="-1538.709" y2="-14688.8936" gradientTransform="matrix(0.9777 -0.2098 -0.2098 -0.9777 -1307.4734 -14838.6914)">
						<stop  offset="0" style="stop-color:#075F37;stop-opacity:0"/>
						<stop  offset="1" style="stop-color:#002B2A"/>
					</linearGradient>
					<path style="fill:url(#SVGID_00000145773942101492804260000011607250078142781581_);" d="M272.9-155.2c0,0,0.9,13.2,4.1,21.2
						c0,0-6.3-1.7-7-5.6l2.4,1C272.4-138.6,265.4-141.5,272.9-155.2z"/>
					
						<linearGradient id="SVGID_00000040573273916089281610000011415314646914455680_" gradientUnits="userSpaceOnUse" x1="-1531.9534" y1="-14722.0986" x2="-1531.9534" y2="-14694.5264" gradientTransform="matrix(0.9777 -0.2098 -0.2098 -0.9777 -1307.4734 -14838.6914)">
						<stop  offset="0" style="stop-color:#075F37;stop-opacity:0"/>
						<stop  offset="1" style="stop-color:#002B2A"/>
					</linearGradient>
					<path style="fill:url(#SVGID_00000040573273916089281610000011415314646914455680_);" d="M279.4-122.6c0,0,5.3-5.8,5-14.7
						c-0.3-8.9-9-12.6-9-12.6S280.1-128.7,279.4-122.6z"/>
				</g>
				<path class="st3" d="M283.7-122.3c-4.1,3.6-15.8,24.8,0,30.8c15.8,5.9,22.8-14.1,32.2-15.4c9.4-1.3,10.1-15.5-4.3-18
					C297.3-127.5,292.1-129.7,283.7-122.3z"/>
				<path class="st7" d="M281.1-112.4c4.9,5.5,22.2-9.6,19.3-12.6C297.5-127.9,278.4-115.4,281.1-112.4z"/>
				<path class="st8" d="M280.8-121.5l-7.1-4.6l-2.3,4.6c0,0,5.3,1.7,7.1,3C278.6-118.5,280.3-118.3,280.8-121.5z"/>
				<path class="st9" d="M273.7-126.1c0,0-1.2,0.2-2,2c-0.8,1.8-0.3,2.7-0.3,2.7s1,0.2,1.8-1.9C274.1-125.4,273.7-126.1,273.7-126.1
					z"/>
			</g>
			<g>
				<path class="st10" d="M374.4-182.7c-0.2-0.4-0.5-0.7-0.9-1.1c-9-8.2-26.3,0.6-35.1,8.6c-8,7.3-24.3,17.6-29.8,21
					c-0.3,0.2-0.4,0.5-0.2,0.8c0.1,0.2,0.3,0.4,0.6,0.4C353.3-152.9,380.1-173.8,374.4-182.7z"/>
				<path class="st3" d="M370.4-181.2c-0.2-0.3-0.5-0.7-0.8-0.9c-7.9-7.3-19.2-2-29.9,8.2c-6.9,6.6-23.2,16-28,18.9
					c-0.3,0.2-0.3,0.5-0.2,0.7c0.1,0.2,0.3,0.3,0.5,0.3C351-153.8,375.4-173.3,370.4-181.2z"/>
				<path class="st1" d="M374.4-182.7C374.4-182.7,374.4-182.7,374.4-182.7c5.7,8.9-21.1,29.8-65.5,29.7c-0.3,0-0.5-0.2-0.6-0.4
					c0,0,0,0,0,0s2.6,17.2,39.2,10.3C384.2-149.9,380.7-177.5,374.4-182.7z"/>
				<path class="st2" d="M331.3-161.3c1.2,0.9,10.4-1.1,18-4.8c7.6-3.7,10.3-9.3,6.8-11.6c-3.6-2.4-6.3,0.9-10.6,5.2
					C341.1-168.2,329.8-162.4,331.3-161.3z"/>
			</g>
		</g>
		<g>
			<g>
				<g>
					<path class="st2" d="M166-2.1c46.2,12,74.8-31,73.1-41.2c-0.3-1.7-1-3.1-2-4.3c-6.7-2.8-15.8-3.7-21.3-5.5
						c-9.1-2.8-22.4-13.9-39-18.3c-14.9-3.9-29.1,9-35.8,19.5c-3.3,5.1-9.1,18.3-4.8,31C140.6-13.4,149.5-6.4,166-2.1z"/>
				</g>
				<path class="st3" d="M142.8-52.8c4.7-7.3,14.6-16.3,24.9-13.6c11.6,3,20.8,10.8,27.1,12.7c6.3,2,19.3,2.4,20.5,9.8
					c1.2,7.4-19.5,38.5-52.8,29.8C129.2-22.8,138.8-46.5,142.8-52.8z"/>
				<g>
					
						<linearGradient id="SVGID_00000123439251366007591460000014665893901332351125_" gradientUnits="userSpaceOnUse" x1="-1691.3391" y1="-14742.3086" x2="-1671.2523" y2="-14742.3086" gradientTransform="matrix(0.9777 -0.2098 -0.2098 -0.9777 -1307.4734 -14838.6914)">
						<stop  offset="2.925530e-02" style="stop-color:#075F37"/>
						<stop  offset="1" style="stop-color:#078837"/>
					</linearGradient>
					<path style="fill:url(#SVGID_00000123439251366007591460000014665893901332351125_);" d="M144.6-54.1c0,0,9.7-7.9,7-20
						S141-85,139.1-89.8c-1.8-4.8-9,13.1-7,21C134.2-60.9,144.6-54.1,144.6-54.1z"/>
					
						<linearGradient id="SVGID_00000105416417517424446640000000064783484092120983_" gradientUnits="userSpaceOnUse" x1="-1684.3726" y1="-14747.1631" x2="-1684.3726" y2="-14725.5596" gradientTransform="matrix(0.9777 -0.2098 -0.2098 -0.9777 -1307.4734 -14838.6914)">
						<stop  offset="0" style="stop-color:#075F37;stop-opacity:0"/>
						<stop  offset="1" style="stop-color:#002B2A"/>
					</linearGradient>
					<path style="fill:url(#SVGID_00000105416417517424446640000000064783484092120983_);" d="M138.1-88.8c0,0,0.9,13.2,4.1,21.2
						c0,0-6.3-1.7-7-5.6l2.4,1C137.6-72.2,130.7-75.1,138.1-88.8z"/>
					
						<linearGradient id="SVGID_00000081614986999380657090000005163250600813394095_" gradientUnits="userSpaceOnUse" x1="-1677.6169" y1="-14758.7637" x2="-1677.6169" y2="-14731.1914" gradientTransform="matrix(0.9777 -0.2098 -0.2098 -0.9777 -1307.4734 -14838.6914)">
						<stop  offset="0" style="stop-color:#075F37;stop-opacity:0"/>
						<stop  offset="1" style="stop-color:#002B2A"/>
					</linearGradient>
					<path style="fill:url(#SVGID_00000081614986999380657090000005163250600813394095_);" d="M144.7-56.2c0,0,5.3-5.8,5-14.7
						s-9-12.6-9-12.6S145.4-62.3,144.7-56.2z"/>
				</g>
				<path class="st3" d="M149-55.9c-4.1,3.6-15.8,24.8,0,30.8c15.8,5.9,22.8-14.1,32.2-15.4c9.4-1.3,10.1-15.5-4.3-18
					C162.6-61.1,157.4-63.3,149-55.9z"/>
			</g>
			<g>
				<path class="st10" d="M239.7-116.3c-0.2-0.4-0.5-0.7-0.9-1.1c-9-8.2-26.3,0.6-35.1,8.6c-8,7.3-24.3,17.6-29.8,21
					c-0.3,0.2-0.4,0.5-0.2,0.8c0.1,0.2,0.3,0.4,0.6,0.4C218.6-86.5,245.4-107.4,239.7-116.3z"/>
				<path class="st3" d="M235.7-114.8c-0.2-0.3-0.5-0.7-0.8-0.9c-7.9-7.3-19.2-2-29.9,8.2c-6.9,6.6-23.2,16-28,18.9
					c-0.3,0.2-0.3,0.5-0.2,0.7c0.1,0.2,0.3,0.3,0.5,0.3C216.2-87.4,240.7-106.9,235.7-114.8z"/>
				<path class="st1" d="M239.7-116.3C239.7-116.3,239.7-116.3,239.7-116.3c5.7,8.9-21.1,29.8-65.5,29.7c-0.3,0-0.5-0.2-0.6-0.4
					c0,0,0,0,0,0s2.6,17.2,39.2,10.3C249.4-83.5,246-111.1,239.7-116.3z"/>
				<path class="st8" d="M243.6-126.8c-0.5-0.3-1,0.1-1,0.6c0.1,0.9,0.3,2.5-0.7,4.5c-1.1,2.1-2.6,3.3-3.6,4
					c0.2,0.1,0.3,0.3,0.5,0.4c0.3,0.2,0.5,0.5,0.7,0.7c1-0.3,2.3-1.2,4.1-3.3C247.1-123.8,245.1-125.9,243.6-126.8z"/>
				<path class="st2" d="M196.6-94.9c1.2,0.9,10.4-1.1,18-4.8c7.6-3.7,10.3-9.3,6.8-11.6c-3.6-2.4-6.3,0.9-10.6,5.2
					C206.4-101.8,195.1-96,196.6-94.9z"/>
			</g>
			<g>
				
					<linearGradient id="SVGID_00000147925829534250764960000000936199186099652739_" gradientUnits="userSpaceOnUse" x1="13155.5186" y1="-18246.2051" x2="13175.6055" y2="-18246.2051" gradientTransform="matrix(0.3173 0.9483 0.9483 -0.3173 13374.291 -18344.7266)">
					<stop  offset="2.925530e-02" style="stop-color:#075F37"/>
					<stop  offset="1" style="stop-color:#078837"/>
				</linearGradient>
				<path style="fill:url(#SVGID_00000147925829534250764960000000936199186099652739_);" d="M231-65.4c0,0,9,8.8,20.6,4.7
					c11.7-4,9.7-11.7,14.2-14.1s-14-7.5-21.6-4.6C236.5-76.4,231-65.4,231-65.4z"/>
				
					<linearGradient id="SVGID_00000125572128707313481350000015938847037933721258_" gradientUnits="userSpaceOnUse" x1="13162.4854" y1="-18251.0605" x2="13162.4854" y2="-18229.457" gradientTransform="matrix(0.3173 0.9483 0.9483 -0.3173 13374.291 -18344.7266)">
					<stop  offset="0" style="stop-color:#075F37;stop-opacity:0"/>
					<stop  offset="1" style="stop-color:#002B2A"/>
				</linearGradient>
				<path style="fill:url(#SVGID_00000125572128707313481350000015938847037933721258_);" d="M264.7-75.6c0,0-13,2.4-20.6,6.4
					c0,0,1-6.4,4.7-7.6l-0.7,2.5C248.2-74.3,250.3-81.5,264.7-75.6z"/>
				
					<linearGradient id="SVGID_00000118398293165001422520000012055559656558071983_" gradientUnits="userSpaceOnUse" x1="13169.2412" y1="-18262.6602" x2="13169.2412" y2="-18235.0879" gradientTransform="matrix(0.3173 0.9483 0.9483 -0.3173 13374.291 -18344.7266)">
					<stop  offset="0" style="stop-color:#075F37;stop-opacity:0"/>
					<stop  offset="1" style="stop-color:#002B2A"/>
				</linearGradient>
				<path style="fill:url(#SVGID_00000118398293165001422520000012055559656558071983_);" d="M233.1-65.5c0,0,6.4,4.6,15.2,3.4
					c8.8-1.3,11.5-10.3,11.5-10.3S239.2-65.4,233.1-65.5z"/>
			</g>
		</g>
		<g>
			<g>
				<g>
					<path class="st1" d="M110.6-105.5c-0.7-4.2-3.9-6.8-8.2-8.6c1.1,1.2,1.8,2.6,2,4.3c1.7,10.2-26.9,53.3-73.1,41.2
						C14.8-72.8,5.9-79.8,1.5-87.3C4.8-77.6,14-68.1,34.7-62.7C82.7-50.2,112.3-94.9,110.6-105.5z"/>
					<path class="st2" d="M31.3-68.5c46.2,12,74.8-31,73.1-41.2c-0.3-1.7-1-3.1-2-4.3c-6.7-2.8-15.8-3.7-21.3-5.5
						c-9.1-2.8-22.4-13.9-39-18.3c-14.9-3.9-29.1,9-35.8,19.5c-3.3,5.1-9.1,18.3-4.8,31C5.9-79.8,14.8-72.8,31.3-68.5z"/>
				</g>
				<path class="st3" d="M8.1-119.2c4.7-7.3,14.6-16.3,24.9-13.6c11.6,3,20.8,10.8,27.1,12.7c6.3,2,19.3,2.4,20.5,9.8
					c1.2,7.4-19.5,38.5-52.8,29.8C-5.5-89.2,4.1-112.9,8.1-119.2z"/>
			</g>
			<g>
				<path class="st10" d="M105-182.7c-0.2-0.4-0.5-0.7-0.9-1.1c-9-8.2-26.3,0.6-35.1,8.6c-8,7.3-24.3,17.6-29.8,21
					c-0.3,0.2-0.4,0.5-0.2,0.8c0.1,0.2,0.3,0.4,0.6,0.4C83.9-152.9,110.7-173.8,105-182.7z"/>
				<path class="st3" d="M101-181.2c-0.2-0.3-0.5-0.7-0.8-0.9c-7.9-7.3-19.2-2-29.9,8.2c-6.9,6.6-23.2,16-28,18.9
					c-0.3,0.2-0.3,0.5-0.2,0.7c0.1,0.2,0.3,0.3,0.5,0.3C81.5-153.8,106-173.3,101-181.2z"/>
				<path class="st1" d="M105-182.7C105-182.7,105-182.7,105-182.7c5.7,8.9-21.1,29.8-65.5,29.7c-0.3,0-0.5-0.2-0.6-0.4c0,0,0,0,0,0
					s2.6,17.2,39.2,10.3C114.7-149.9,111.3-177.5,105-182.7z"/>
				<path class="st8" d="M108.8-193.2c-0.5-0.3-1,0.1-1,0.6c0.1,0.9,0.3,2.5-0.7,4.5c-1.1,2.1-2.6,3.3-3.6,4
					c0.2,0.1,0.3,0.3,0.5,0.4c0.3,0.2,0.5,0.5,0.7,0.7c1-0.3,2.3-1.2,4.1-3.3C112.3-190.2,110.4-192.3,108.8-193.2z"/>
				<path class="st2" d="M61.9-161.3c1.2,0.9,10.4-1.1,18-4.8c7.6-3.7,10.3-9.3,6.8-11.6c-3.6-2.4-6.3,0.9-10.6,5.2
					C71.7-168.2,60.4-162.4,61.9-161.3z"/>
			</g>
			<g>
				
					<linearGradient id="SVGID_00000137833460550007202550000017404659533690963094_" gradientUnits="userSpaceOnUse" x1="13049.791" y1="-18352.8965" x2="13069.8779" y2="-18352.8965" gradientTransform="matrix(0.3173 0.9483 0.9483 -0.3173 13374.291 -18344.7266)">
					<stop  offset="2.925530e-02" style="stop-color:#075F37"/>
					<stop  offset="1" style="stop-color:#078837"/>
				</linearGradient>
				<path style="fill:url(#SVGID_00000137833460550007202550000017404659533690963094_);" d="M96.3-131.8c0,0,9,8.8,20.6,4.7
					c11.7-4,9.7-11.7,14.2-14.1c4.5-2.3-14-7.5-21.6-4.6C101.8-142.8,96.3-131.8,96.3-131.8z"/>
				
					<linearGradient id="SVGID_00000145746888844498677340000011710243716075114154_" gradientUnits="userSpaceOnUse" x1="13056.7578" y1="-18357.752" x2="13056.7578" y2="-18336.1484" gradientTransform="matrix(0.3173 0.9483 0.9483 -0.3173 13374.291 -18344.7266)">
					<stop  offset="0" style="stop-color:#075F37;stop-opacity:0"/>
					<stop  offset="1" style="stop-color:#002B2A"/>
				</linearGradient>
				<path style="fill:url(#SVGID_00000145746888844498677340000011710243716075114154_);" d="M130-142c0,0-13,2.4-20.6,6.4
					c0,0,1-6.4,4.7-7.6l-0.7,2.5C113.4-140.7,115.6-147.9,130-142z"/>
				
					<linearGradient id="SVGID_00000118386627545417487230000008635605908794144409_" gradientUnits="userSpaceOnUse" x1="13063.5137" y1="-18369.3516" x2="13063.5137" y2="-18341.7793" gradientTransform="matrix(0.3173 0.9483 0.9483 -0.3173 13374.291 -18344.7266)">
					<stop  offset="0" style="stop-color:#075F37;stop-opacity:0"/>
					<stop  offset="1" style="stop-color:#002B2A"/>
				</linearGradient>
				<path style="fill:url(#SVGID_00000118386627545417487230000008635605908794144409_);" d="M98.4-131.9c0,0,6.4,4.6,15.2,3.4
					c8.8-1.3,11.5-10.3,11.5-10.3S104.5-131.8,98.4-131.9z"/>
			</g>
		</g>
		<g>
			<g>
				<g>
					<path class="st1" d="M380.1-238.3c-0.7-4.2-3.9-6.8-8.2-8.6c1.1,1.2,1.8,2.6,2,4.3c1.7,10.2-26.9,53.3-73.1,41.2
						c-16.5-4.3-25.4-11.2-29.8-18.8c3.3,9.7,12.5,19.2,33.2,24.6C352.1-183,381.8-227.7,380.1-238.3z"/>
					<path class="st2" d="M300.8-201.3c46.2,12,74.8-31,73.1-41.2c-0.3-1.7-1-3.1-2-4.3c-6.7-2.8-15.8-3.7-21.3-5.5
						c-9.1-2.8-22.4-13.9-39-18.3c-14.9-3.9-29.1,9-35.8,19.5c-3.3,5.1-9.1,18.3-4.8,31C275.3-212.6,284.3-205.6,300.8-201.3z"/>
				</g>
				<path class="st3" d="M277.5-252.1c4.7-7.3,14.6-16.3,24.9-13.6c11.6,3,20.8,10.8,27.1,12.7c6.3,2,19.3,2.4,20.5,9.8
					s-19.5,38.5-52.8,29.8C263.9-222.1,273.5-245.8,277.5-252.1z"/>
				<g>
					
						<linearGradient id="SVGID_00000105409105044110558100000007349744568687414674_" gradientUnits="userSpaceOnUse" x1="-1517.8082" y1="-14575.7773" x2="-1497.7214" y2="-14575.7773" gradientTransform="matrix(0.9777 -0.2098 -0.2098 -0.9777 -1307.4734 -14838.6914)">
						<stop  offset="2.925530e-02" style="stop-color:#075F37"/>
						<stop  offset="1" style="stop-color:#078837"/>
					</linearGradient>
					<path style="fill:url(#SVGID_00000105409105044110558100000007349744568687414674_);" d="M279.3-253.4c0,0,9.7-7.9,7-20
						c-2.7-12-10.6-10.9-12.4-15.7c-1.8-4.8-9,13.1-7,21C269-260.1,279.3-253.4,279.3-253.4z"/>
					
						<linearGradient id="SVGID_00000075879655150032626630000014320281156665374368_" gradientUnits="userSpaceOnUse" x1="-1510.8418" y1="-14580.6318" x2="-1510.8418" y2="-14559.0283" gradientTransform="matrix(0.9777 -0.2098 -0.2098 -0.9777 -1307.4734 -14838.6914)">
						<stop  offset="0" style="stop-color:#075F37;stop-opacity:0"/>
						<stop  offset="1" style="stop-color:#002B2A"/>
					</linearGradient>
					<path style="fill:url(#SVGID_00000075879655150032626630000014320281156665374368_);" d="M272.9-288c0,0,0.9,13.2,4.1,21.2
						c0,0-6.3-1.7-7-5.6l2.4,1C272.4-271.4,265.4-274.4,272.9-288z"/>
					
						<linearGradient id="SVGID_00000078047131703259576900000001577518267217811381_" gradientUnits="userSpaceOnUse" x1="-1504.0861" y1="-14592.2324" x2="-1504.0861" y2="-14564.6602" gradientTransform="matrix(0.9777 -0.2098 -0.2098 -0.9777 -1307.4734 -14838.6914)">
						<stop  offset="0" style="stop-color:#075F37;stop-opacity:0"/>
						<stop  offset="1" style="stop-color:#002B2A"/>
					</linearGradient>
					<path style="fill:url(#SVGID_00000078047131703259576900000001577518267217811381_);" d="M279.4-255.4c0,0,5.3-5.8,5-14.7
						c-0.3-8.9-9-12.6-9-12.6S280.1-261.5,279.4-255.4z"/>
				</g>
				<path class="st3" d="M283.7-255.2c-4.1,3.6-15.8,24.8,0,30.8c15.8,5.9,22.8-14.1,32.2-15.4c9.4-1.3,10.1-15.5-4.3-18
					C297.3-260.3,292.1-262.5,283.7-255.2z"/>
				<path class="st7" d="M281.1-245.2c4.9,5.5,22.2-9.6,19.3-12.6C297.5-260.7,278.4-248.2,281.1-245.2z"/>
				<path class="st8" d="M280.8-254.3l-7.1-4.6l-2.3,4.6c0,0,5.3,1.7,7.1,3C278.6-251.3,280.3-251.1,280.8-254.3z"/>
				<path class="st9" d="M273.7-258.9c0,0-1.2,0.2-2,2c-0.8,1.8-0.3,2.7-0.3,2.7s1,0.2,1.8-1.9C274.1-258.2,273.7-258.9,273.7-258.9
					z"/>
			</g>
			<g>
				<path class="st10" d="M374.4-315.5c-0.2-0.4-0.5-0.7-0.9-1.1c-9-8.2-26.3,0.6-35.1,8.6c-8,7.3-24.3,17.6-29.8,21
					c-0.3,0.2-0.4,0.5-0.2,0.8c0.1,0.2,0.3,0.4,0.6,0.4C353.3-285.7,380.1-306.6,374.4-315.5z"/>
				<path class="st3" d="M370.4-314c-0.2-0.3-0.5-0.7-0.8-0.9c-7.9-7.3-19.2-2-29.9,8.2c-6.9,6.6-23.2,16-28,18.9
					c-0.3,0.2-0.3,0.5-0.2,0.7c0.1,0.2,0.3,0.3,0.5,0.3C351-286.6,375.4-306.2,370.4-314z"/>
				<path class="st1" d="M374.4-315.5C374.4-315.5,374.4-315.5,374.4-315.5c5.7,8.9-21.1,29.8-65.5,29.7c-0.3,0-0.5-0.2-0.6-0.4
					c0,0,0,0,0,0s2.6,17.2,39.2,10.3C384.2-282.7,380.7-310.3,374.4-315.5z"/>
				<path class="st2" d="M331.3-294.1c1.2,0.9,10.4-1.1,18-4.8c7.6-3.7,10.3-9.3,6.8-11.6c-3.6-2.4-6.3,0.9-10.6,5.2
					C341.1-301,329.8-295.3,331.3-294.1z"/>
			</g>
		</g>
		<g>
			<g>
				<g>
					<path class="st1" d="M245.4-171.9c-0.7-4.2-3.9-6.8-8.2-8.6c1.1,1.2,1.8,2.6,2,4.3c1.7,10.2-26.9,53.3-73.1,41.2
						c-16.5-4.3-25.4-11.2-29.8-18.8c3.3,9.7,12.5,19.2,33.2,24.6C217.4-116.6,247.1-161.3,245.4-171.9z"/>
					<path class="st2" d="M166-134.9c46.2,12,74.8-31,73.1-41.2c-0.3-1.7-1-3.1-2-4.3c-6.7-2.8-15.8-3.7-21.3-5.5
						c-9.1-2.8-22.4-13.9-39-18.3c-14.9-3.9-29.1,9-35.8,19.5c-3.3,5.1-9.1,18.3-4.8,31C140.6-146.2,149.5-139.2,166-134.9z"/>
				</g>
				<path class="st3" d="M142.8-185.7c4.7-7.3,14.6-16.3,24.9-13.6c11.6,3,20.8,10.8,27.1,12.7c6.3,2,19.3,2.4,20.5,9.8
					c1.2,7.4-19.5,38.5-52.8,29.8C129.2-155.6,138.8-179.3,142.8-185.7z"/>
				<g>
					
						<linearGradient id="SVGID_00000145040964165974654880000009592224029800811169_" gradientUnits="userSpaceOnUse" x1="-1663.4718" y1="-14612.4424" x2="-1643.385" y2="-14612.4424" gradientTransform="matrix(0.9777 -0.2098 -0.2098 -0.9777 -1307.4734 -14838.6914)">
						<stop  offset="2.925530e-02" style="stop-color:#075F37"/>
						<stop  offset="1" style="stop-color:#078837"/>
					</linearGradient>
					<path style="fill:url(#SVGID_00000145040964165974654880000009592224029800811169_);" d="M144.6-186.9c0,0,9.7-7.9,7-20
						s-10.6-10.9-12.4-15.7c-1.8-4.8-9,13.1-7,21C134.2-193.7,144.6-186.9,144.6-186.9z"/>
					
						<linearGradient id="SVGID_00000180339736234565793900000001665826862689912970_" gradientUnits="userSpaceOnUse" x1="-1656.5054" y1="-14617.2979" x2="-1656.5054" y2="-14595.6934" gradientTransform="matrix(0.9777 -0.2098 -0.2098 -0.9777 -1307.4734 -14838.6914)">
						<stop  offset="0" style="stop-color:#075F37;stop-opacity:0"/>
						<stop  offset="1" style="stop-color:#002B2A"/>
					</linearGradient>
					<path style="fill:url(#SVGID_00000180339736234565793900000001665826862689912970_);" d="M138.1-221.6c0,0,0.9,13.2,4.1,21.2
						c0,0-6.3-1.7-7-5.6l2.4,1C137.6-205,130.7-207.9,138.1-221.6z"/>
					
						<linearGradient id="SVGID_00000083070900571192879150000012056263052771469702_" gradientUnits="userSpaceOnUse" x1="-1649.7496" y1="-14628.8984" x2="-1649.7496" y2="-14601.3262" gradientTransform="matrix(0.9777 -0.2098 -0.2098 -0.9777 -1307.4734 -14838.6914)">
						<stop  offset="0" style="stop-color:#075F37;stop-opacity:0"/>
						<stop  offset="1" style="stop-color:#002B2A"/>
					</linearGradient>
					<path style="fill:url(#SVGID_00000083070900571192879150000012056263052771469702_);" d="M144.7-189c0,0,5.3-5.8,5-14.7
						s-9-12.6-9-12.6S145.4-195.1,144.7-189z"/>
				</g>
				<path class="st3" d="M149-188.8c-4.1,3.6-15.8,24.8,0,30.8c15.8,5.9,22.8-14.1,32.2-15.4c9.4-1.3,10.1-15.5-4.3-18
					C162.6-193.9,157.4-196.1,149-188.8z"/>
				<path class="st7" d="M146.4-178.8c4.9,5.5,22.2-9.6,19.3-12.6C162.8-194.3,143.6-181.8,146.4-178.8z"/>
				<path class="st8" d="M146.1-187.9l-7.1-4.6l-2.3,4.6c0,0,5.3,1.7,7.1,3C143.9-184.9,145.6-184.7,146.1-187.9z"/>
				<path class="st9" d="M139-192.5c0,0-1.2,0.2-2,2c-0.8,1.8-0.3,2.7-0.3,2.7s1,0.2,1.8-1.9C139.4-191.8,139-192.5,139-192.5z"/>
			</g>
			<g>
				<path class="st10" d="M239.7-249.1c-0.2-0.4-0.5-0.7-0.9-1.1c-9-8.2-26.3,0.6-35.1,8.6c-8,7.3-24.3,17.6-29.8,21
					c-0.3,0.2-0.4,0.5-0.2,0.8c0.1,0.2,0.3,0.4,0.6,0.4C218.6-219.3,245.4-240.2,239.7-249.1z"/>
				<path class="st3" d="M235.7-247.6c-0.2-0.3-0.5-0.7-0.8-0.9c-7.9-7.3-19.2-2-29.9,8.2c-6.9,6.6-23.2,16-28,18.9
					c-0.3,0.2-0.3,0.5-0.2,0.7c0.1,0.2,0.3,0.3,0.5,0.3C216.2-220.2,240.7-239.8,235.7-247.6z"/>
				<path class="st1" d="M239.7-249.1C239.7-249.1,239.7-249.1,239.7-249.1c5.7,8.9-21.1,29.8-65.5,29.7c-0.3,0-0.5-0.2-0.6-0.4
					c0,0,0,0,0,0s2.6,17.2,39.2,10.3C249.4-216.3,246-243.9,239.7-249.1z"/>
				<path class="st8" d="M243.6-259.6c-0.5-0.3-1,0.1-1,0.6c0.1,0.9,0.3,2.5-0.7,4.5c-1.1,2.1-2.6,3.3-3.6,4
					c0.2,0.1,0.3,0.3,0.5,0.4c0.3,0.2,0.5,0.5,0.7,0.7c1-0.3,2.3-1.2,4.1-3.3C247.1-256.6,245.1-258.7,243.6-259.6z"/>
				<path class="st2" d="M196.6-227.7c1.2,0.9,10.4-1.1,18-4.8c7.6-3.7,10.3-9.3,6.8-11.6c-3.6-2.4-6.3,0.9-10.6,5.2
					C206.4-234.6,195.1-228.9,196.6-227.7z"/>
			</g>
			<g>
				
					<linearGradient id="SVGID_00000150104099572255968970000005859989125275655581_" gradientUnits="userSpaceOnUse" x1="13029.5635" y1="-18204.0605" x2="13049.6494" y2="-18204.0605" gradientTransform="matrix(0.3173 0.9483 0.9483 -0.3173 13374.291 -18344.7266)">
					<stop  offset="2.925530e-02" style="stop-color:#075F37"/>
					<stop  offset="1" style="stop-color:#078837"/>
				</linearGradient>
				<path style="fill:url(#SVGID_00000150104099572255968970000005859989125275655581_);" d="M231-198.2c0,0,9,8.8,20.6,4.7
					c11.7-4,9.7-11.7,14.2-14.1c4.5-2.3-14-7.5-21.6-4.6C236.5-209.2,231-198.2,231-198.2z"/>
				
					<linearGradient id="SVGID_00000033362648576276047160000018259047791506596743_" gradientUnits="userSpaceOnUse" x1="13036.5293" y1="-18208.916" x2="13036.5293" y2="-18187.3125" gradientTransform="matrix(0.3173 0.9483 0.9483 -0.3173 13374.291 -18344.7266)">
					<stop  offset="0" style="stop-color:#075F37;stop-opacity:0"/>
					<stop  offset="1" style="stop-color:#002B2A"/>
				</linearGradient>
				<path style="fill:url(#SVGID_00000033362648576276047160000018259047791506596743_);" d="M264.7-208.4c0,0-13,2.4-20.6,6.4
					c0,0,1-6.4,4.7-7.6l-0.7,2.5C248.2-207.1,250.3-214.4,264.7-208.4z"/>
				
					<linearGradient id="SVGID_00000138561004478797158750000004020896951063040644_" gradientUnits="userSpaceOnUse" x1="13043.2852" y1="-18220.5156" x2="13043.2852" y2="-18192.9434" gradientTransform="matrix(0.3173 0.9483 0.9483 -0.3173 13374.291 -18344.7266)">
					<stop  offset="0" style="stop-color:#075F37;stop-opacity:0"/>
					<stop  offset="1" style="stop-color:#002B2A"/>
				</linearGradient>
				<path style="fill:url(#SVGID_00000138561004478797158750000004020896951063040644_);" d="M233.1-198.3c0,0,6.4,4.6,15.2,3.4
					c8.8-1.3,11.5-10.3,11.5-10.3S239.2-198.3,233.1-198.3z"/>
			</g>
		</g>
		<g>
			<g>
				<g>
					<path class="st1" d="M110.6-238.3c-0.7-4.2-3.9-6.8-8.2-8.6c1.1,1.2,1.8,2.6,2,4.3c1.7,10.2-26.9,53.3-73.1,41.2
						c-16.5-4.3-25.4-11.2-29.8-18.8c3.3,9.7,12.5,19.2,33.2,24.6C82.7-183,112.3-227.7,110.6-238.3z"/>
					<path class="st2" d="M31.3-201.3c46.2,12,74.8-31,73.1-41.2c-0.3-1.7-1-3.1-2-4.3c-6.7-2.8-15.8-3.7-21.3-5.5
						c-9.1-2.8-22.4-13.9-39-18.3c-14.9-3.9-29.1,9-35.8,19.5c-3.3,5.1-9.1,18.3-4.8,31C5.9-212.6,14.8-205.6,31.3-201.3z"/>
				</g>
				<path class="st3" d="M8.1-252.1c4.7-7.3,14.6-16.3,24.9-13.6c11.6,3,20.8,10.8,27.1,12.7c6.3,2,19.3,2.4,20.5,9.8
					c1.2,7.4-19.5,38.5-52.8,29.8C-5.5-222.1,4.1-245.8,8.1-252.1z"/>
			</g>
			<g>
				<path class="st10" d="M105-315.5c-0.2-0.4-0.5-0.7-0.9-1.1c-9-8.2-26.3,0.6-35.1,8.6c-8,7.3-24.3,17.6-29.8,21
					c-0.3,0.2-0.4,0.5-0.2,0.8c0.1,0.2,0.3,0.4,0.6,0.4C83.9-285.7,110.7-306.6,105-315.5z"/>
				<path class="st3" d="M101-314c-0.2-0.3-0.5-0.7-0.8-0.9c-7.9-7.3-19.2-2-29.9,8.2c-6.9,6.6-23.2,16-28,18.9
					c-0.3,0.2-0.3,0.5-0.2,0.7c0.1,0.2,0.3,0.3,0.5,0.3C81.5-286.6,106-306.2,101-314z"/>
				<path class="st1" d="M105-315.5C105-315.5,105-315.5,105-315.5c5.7,8.9-21.1,29.8-65.5,29.7c-0.3,0-0.5-0.2-0.6-0.4c0,0,0,0,0,0
					s2.6,17.2,39.2,10.3C114.7-282.7,111.3-310.3,105-315.5z"/>
				<path class="st8" d="M108.8-326.1c-0.5-0.3-1,0.1-1,0.6c0.1,0.9,0.3,2.5-0.7,4.5c-1.1,2.1-2.6,3.3-3.6,4
					c0.2,0.1,0.3,0.3,0.5,0.4c0.3,0.2,0.5,0.5,0.7,0.7c1-0.3,2.3-1.2,4.1-3.3C112.3-323,110.4-325.1,108.8-326.1z"/>
				<path class="st2" d="M61.9-294.1c1.2,0.9,10.4-1.1,18-4.8c7.6-3.7,10.3-9.3,6.8-11.6c-3.6-2.4-6.3,0.9-10.6,5.2
					C71.7-301,60.4-295.3,61.9-294.1z"/>
			</g>
			<g>
				
					<linearGradient id="SVGID_00000134934137913185011540000013039158367397150084_" gradientUnits="userSpaceOnUse" x1="12923.8359" y1="-18310.752" x2="12943.9219" y2="-18310.752" gradientTransform="matrix(0.3173 0.9483 0.9483 -0.3173 13374.291 -18344.7266)">
					<stop  offset="2.925530e-02" style="stop-color:#075F37"/>
					<stop  offset="1" style="stop-color:#078837"/>
				</linearGradient>
				<path style="fill:url(#SVGID_00000134934137913185011540000013039158367397150084_);" d="M96.3-264.6c0,0,9,8.8,20.6,4.7
					c11.7-4,9.7-11.7,14.2-14.1c4.5-2.3-14-7.5-21.6-4.6C101.8-275.6,96.3-264.6,96.3-264.6z"/>
				
					<linearGradient id="SVGID_00000182520368241523101250000017942364768653959045_" gradientUnits="userSpaceOnUse" x1="12930.8018" y1="-18315.6074" x2="12930.8018" y2="-18294.0039" gradientTransform="matrix(0.3173 0.9483 0.9483 -0.3173 13374.291 -18344.7266)">
					<stop  offset="0" style="stop-color:#075F37;stop-opacity:0"/>
					<stop  offset="1" style="stop-color:#002B2A"/>
				</linearGradient>
				<path style="fill:url(#SVGID_00000182520368241523101250000017942364768653959045_);" d="M130-274.8c0,0-13,2.4-20.6,6.4
					c0,0,1-6.4,4.7-7.6l-0.7,2.5C113.4-273.5,115.6-280.8,130-274.8z"/>
				
					<linearGradient id="SVGID_00000131346348004642036790000013603037018707161222_" gradientUnits="userSpaceOnUse" x1="12937.5576" y1="-18327.207" x2="12937.5576" y2="-18299.6348" gradientTransform="matrix(0.3173 0.9483 0.9483 -0.3173 13374.291 -18344.7266)">
					<stop  offset="0" style="stop-color:#075F37;stop-opacity:0"/>
					<stop  offset="1" style="stop-color:#002B2A"/>
				</linearGradient>
				<path style="fill:url(#SVGID_00000131346348004642036790000013603037018707161222_);" d="M98.4-264.7c0,0,6.4,4.6,15.2,3.4
					s11.5-10.3,11.5-10.3S104.5-264.7,98.4-264.7z"/>
			</g>
		</g>
		<g>
			<g>
				<g>
					<path class="st1" d="M245.4-304.7c-0.7-4.2-3.9-6.8-8.2-8.6c1.1,1.2,1.8,2.6,2,4.3c1.7,10.2-26.9,53.3-73.1,41.2
						c-16.5-4.3-25.4-11.2-29.8-18.8c3.3,9.7,12.5,19.2,33.2,24.6C217.4-249.4,247.1-294.1,245.4-304.7z"/>
					<path class="st2" d="M166-267.7c46.2,12,74.8-31,73.1-41.2c-0.3-1.7-1-3.1-2-4.3c-6.7-2.8-15.8-3.7-21.3-5.5
						c-9.1-2.8-22.4-13.9-39-18.3c-14.9-3.9-29.1,9-35.8,19.5c-3.3,5.1-9.1,18.3-4.8,31C140.6-279,149.5-272,166-267.7z"/>
				</g>
				<path class="st3" d="M142.8-318.5c4.7-7.3,14.6-16.3,24.9-13.6c11.6,3,20.8,10.8,27.1,12.7s19.3,2.4,20.5,9.8
					c1.2,7.4-19.5,38.5-52.8,29.8C129.2-288.5,138.8-312.2,142.8-318.5z"/>
				<g>
					
						<linearGradient id="SVGID_00000033354968623880970090000002148591687313201800_" gradientUnits="userSpaceOnUse" x1="-1635.6046" y1="-14482.5771" x2="-1615.5178" y2="-14482.5771" gradientTransform="matrix(0.9777 -0.2098 -0.2098 -0.9777 -1307.4734 -14838.6914)">
						<stop  offset="2.925530e-02" style="stop-color:#075F37"/>
						<stop  offset="1" style="stop-color:#078837"/>
					</linearGradient>
					<path style="fill:url(#SVGID_00000033354968623880970090000002148591687313201800_);" d="M144.6-319.8c0,0,9.7-7.9,7-20
						c-2.7-12-10.6-10.9-12.4-15.7c-1.8-4.8-9,13.1-7,21C134.2-326.5,144.6-319.8,144.6-319.8z"/>
					
						<linearGradient id="SVGID_00000126299077740517916470000008705508544350443677_" gradientUnits="userSpaceOnUse" x1="-1621.8823" y1="-14499.0322" x2="-1621.8823" y2="-14471.46" gradientTransform="matrix(0.9777 -0.2098 -0.2098 -0.9777 -1307.4734 -14838.6914)">
						<stop  offset="0" style="stop-color:#075F37;stop-opacity:0"/>
						<stop  offset="1" style="stop-color:#002B2A"/>
					</linearGradient>
					<path style="fill:url(#SVGID_00000126299077740517916470000008705508544350443677_);" d="M144.7-321.9c0,0,5.3-5.8,5-14.7
						c-0.3-8.9-9-12.6-9-12.6S145.4-327.9,144.7-321.9z"/>
				</g>
				<path class="st3" d="M149-321.6c-4.1,3.6-15.8,24.8,0,30.8c15.8,5.9,22.8-14.1,32.2-15.4c9.4-1.3,10.1-15.5-4.3-18
					C162.6-326.7,157.4-328.9,149-321.6z"/>
				<path class="st7" d="M146.4-311.6c4.9,5.5,22.2-9.6,19.3-12.6C162.8-327.1,143.6-314.6,146.4-311.6z"/>
				<path class="st8" d="M146.1-320.7l-7.1-4.6l-2.3,4.6c0,0,5.3,1.7,7.1,3C143.9-317.7,145.6-317.5,146.1-320.7z"/>
				<path class="st9" d="M139-325.4c0,0-1.2,0.2-2,2c-0.8,1.8-0.3,2.7-0.3,2.7s1,0.2,1.8-1.9C139.4-324.6,139-325.4,139-325.4z"/>
			</g>
			<g>
				
					<linearGradient id="SVGID_00000071530357733275228640000007739472810990165182_" gradientUnits="userSpaceOnUse" x1="12903.6074" y1="-18161.916" x2="12923.6934" y2="-18161.916" gradientTransform="matrix(0.3173 0.9483 0.9483 -0.3173 13374.291 -18344.7266)">
					<stop  offset="2.925530e-02" style="stop-color:#075F37"/>
					<stop  offset="1" style="stop-color:#078837"/>
				</linearGradient>
				<path style="fill:url(#SVGID_00000071530357733275228640000007739472810990165182_);" d="M231-331c0,0,9,8.8,20.6,4.7
					c11.7-4,9.7-11.7,14.2-14.1c4.5-2.3-14-7.5-21.6-4.6C236.5-342,231-331,231-331z"/>
			</g>
		</g>
	</g>
</pattern>
<g id="BACKGROUND_2">
</g>
<g id="OBJECTS">
	<rect class="st35" width="1080" height="300"/>
	
		<pattern  id="SVGID_00000013912114111564923390000014297065108190553516_" xlink:href="#New_Pattern" patternTransform="matrix(1 0 0 1 -138.8594 34.3674)">
	</pattern>
	<rect style="fill:url(#SVGID_00000013912114111564923390000014297065108190553516_);" width="1080" height="300"/>
	<g>
		
			<rect x="479.3" y="-75.9" transform="matrix(-1.836970e-16 1 -1 -1.836970e-16 689.9999 -389.9999)" class="st37" width="121.3" height="451.9"/>
		<rect x="318.1" y="93.3" class="st38" width="443.9" height="113.3"/>
		<g>
			<path class="st39" d="M380.7,170.1v-40.1h17c3.4,0,6.2,1.2,8.6,3.6c2.4,2.4,3.6,5.2,3.6,8.6c0,2.7-0.8,5.1-2.3,7.2
				c2.4,2.4,3.6,5.2,3.6,8.6c0,3.4-1.2,6.2-3.6,8.6c-2.4,2.4-5.2,3.6-8.6,3.6H380.7z M389.2,138.4v7.3h8.5c1,0,1.9-0.4,2.6-1.1
				c0.7-0.7,1.1-1.6,1.1-2.6c0-1-0.4-1.9-1.1-2.6c-0.7-0.7-1.6-1.1-2.6-1.1H389.2z M389.2,154.3v7.3h9.7c1,0,1.9-0.4,2.6-1.1
				c0.7-0.7,1.1-1.6,1.1-2.6c0-1-0.4-1.9-1.1-2.6c-0.7-0.7-1.6-1.1-2.6-1.1H389.2z"/>
			<path class="st39" d="M423.2,128.7v6.1h-8.5v-6.1H423.2z M423.2,138.4v31.6h-8.5v-31.6H423.2z"/>
			<path class="st39" d="M440.5,162.5c0.7,0.2,1.4,0.3,2.2,0.3c2.4,0,4.4-0.8,6-2.5c0.4-0.4,0.8-0.9,1.1-1.4l7.2,4.6
				c-0.6,1-1.4,1.9-2.2,2.8c-3.3,3.3-7.4,5-12.1,5c-4.7,0-8.7-1.7-12-5c-3.3-3.3-5-7.3-5-12c0-4.7,1.7-8.7,5-12c3.3-3.3,7.3-5,12-5
				c4.7,0,8.7,1.7,12.1,5c1,1.1,1.9,2.2,2.7,3.4L440.5,162.5z M444.9,146c-0.7-0.2-1.5-0.2-2.2-0.2c-2.3,0-4.3,0.8-6,2.5
				c-1.7,1.7-2.5,3.7-2.5,6c0,0.8,0.1,1.5,0.3,2.2L444.9,146z"/>
			<path class="st39" d="M468.2,149.8v20.2h-8.5v-31.6h8.5v0.4c2.2-1.1,4.6-1.6,7.3-1.6c4.7,0,8.7,1.7,12,5c3.3,3.3,5,7.3,5,12v15.8
				H484v-15.8c0-2.4-0.8-4.4-2.5-6c-1.7-1.7-3.7-2.5-6-2.5c-2.4,0-4.4,0.8-6,2.5C469,148.7,468.6,149.2,468.2,149.8z"/>
			<path class="st39" d="M501.4,138.4l6.3,17.4l6.3-17.4h9l-11.5,31.6h-7.6l-11.5-31.6H501.4z"/>
			<path class="st39" d="M536.5,162.5c0.7,0.2,1.4,0.3,2.2,0.3c2.4,0,4.4-0.8,6-2.5c0.4-0.4,0.8-0.9,1.1-1.4l7.1,4.6
				c-0.6,1-1.4,1.9-2.2,2.8c-3.3,3.3-7.4,5-12.1,5c-4.7,0-8.7-1.7-12-5c-3.3-3.3-5-7.3-5-12c0-4.7,1.7-8.7,5-12c3.3-3.3,7.3-5,12-5
				c4.7,0,8.7,1.7,12.1,5c1,1.1,1.9,2.2,2.7,3.4L536.5,162.5z M540.9,146c-0.7-0.2-1.5-0.2-2.2-0.2c-2.3,0-4.3,0.8-6,2.5
				c-1.7,1.7-2.5,3.7-2.5,6c0,0.8,0.1,1.5,0.3,2.2L540.9,146z"/>
			<path class="st39" d="M564.3,149.8v20.2h-8.5v-31.6h8.5v0.4c2.2-1.1,4.6-1.6,7.3-1.6c4.7,0,8.7,1.7,12,5c3.3,3.3,5,7.3,5,12v15.8
				h-8.5v-15.8c0-2.4-0.8-4.4-2.5-6c-1.7-1.7-3.7-2.5-6-2.5c-2.4,0-4.4,0.8-6,2.5C565.1,148.7,564.7,149.2,564.3,149.8z"/>
			<path class="st39" d="M600.8,128.7v6.1h-8.5v-6.1H600.8z M600.8,138.4v31.6h-8.5v-31.6H600.8z"/>
			<path class="st39" d="M627.6,129.9h8.5v40.1h-8.5v-0.4c-2.2,1.1-4.6,1.6-7.3,1.6c-4.7,0-8.7-1.7-12-5c-3.3-3.3-5-7.3-5-12
				c0-4.7,1.7-8.7,5-12c3.3-3.3,7.3-5,12-5c2.7,0,5.1,0.5,7.3,1.6V129.9z M627.6,149.8c-0.4-0.6-0.8-1.1-1.3-1.6
				c-1.7-1.7-3.7-2.5-6-2.5c-2.3,0-4.3,0.8-6,2.5c-1.7,1.7-2.5,3.7-2.5,6c0,2.4,0.8,4.4,2.5,6c1.7,1.7,3.7,2.5,6,2.5
				c2.4,0,4.4-0.8,6-2.5c0.5-0.5,0.9-1,1.3-1.6V149.8z"/>
			<path class="st39" d="M667.5,142.2c3.3,3.3,5,7.3,5,12c0,4.7-1.7,8.7-5,12c-3.3,3.3-7.3,5-12,5c-4.7,0-8.7-1.7-12-5
				c-3.3-3.3-5-7.3-5-12c0-4.7,1.7-8.7,5-12c3.3-3.3,7.3-5,12-5C660.2,137.2,664.2,138.9,667.5,142.2z M655.5,145.7
				c-2.4,0-4.4,0.8-6,2.5c-1.7,1.7-2.5,3.7-2.5,6c0,2.3,0.8,4.3,2.5,6c1.7,1.7,3.7,2.5,6,2.5c2.3,0,4.3-0.8,6-2.5
				c1.7-1.7,2.5-3.7,2.5-6c0-2.4-0.8-4.4-2.5-6C659.8,146.6,657.8,145.7,655.5,145.7z"/>
			<path class="st39" d="M697.4,155.2c1.3,1.8,1.9,3.6,1.9,5.3c0,3.2-1.1,5.8-3.4,7.8c-2.3,2-5.4,3-9.5,3c-5.5,0-10.1-1.5-13.9-4.6
				l5.4-6.4c2.8,1.7,5.4,2.5,8,2.5c1.3,0,2.5-0.2,3.5-0.5c1-0.3,1.5-0.9,1.5-1.7c0-0.7-0.7-1.2-2-1.6l-7-1.8
				c-2.3-0.5-4.2-1.5-5.7-3.3c-1.5-1.7-2.3-3.9-2.3-6.5c0-2.6,1.2-5,3.5-7.1c2.4-2.1,5.2-3.1,8.6-3.1c5.3,0,9.8,1.4,13.4,4.1
				l-5.4,6.3c-2.3-1.3-4.6-1.9-6.8-1.9c-1.8,0-3.1,0.2-3.8,0.6c-0.7,0.4-1.1,0.9-1.1,1.5c0,0.7,0.4,1.2,1.2,1.4l7.5,1.8
				C694,152.1,696.1,153.4,697.4,155.2z"/>
		</g>
	</g>
</g>
<g id="DESIGNED_BY_FREEPIK">
</g>
</svg>
