<?xml version="1.0" encoding="utf-8"?>
<!-- Generator: Adobe Illustrator 28.0.0, SVG Export Plug-In . SVG Version: 6.00 Build 0)  -->
<svg version="1.1" id="_x2014_ÎÓÈ_x5F_2" xmlns="http://www.w3.org/2000/svg" xmlns:xlink="http://www.w3.org/1999/xlink"
	 x="0px" y="0px" viewBox="0 0 253 84.3" style="enable-background:new 0 0 253 84.3;" xml:space="preserve">
<style type="text/css">
	.st0{fill:#EE8400;}
	.st1{fill:#FFC901;}
</style>
<path class="st0" d="M253,35.4c0-6.8-2.4-12.7-7.2-17.5c-4.8-4.8-10.7-7.2-17.5-7.2s-12.7,2.4-17.5,7.2c-0.5,0.5-1,1-1.4,1.6
	c-0.5,0.5-1.1,0.9-1.6,1.4c-1.3,1.3-2.4,2.6-3.3,4.1V12.4h-12.4v0.6c-3.2-1.6-6.7-2.3-10.6-2.3c-6.8,0-12.7,2.4-17.5,7.2
	c-0.5,0.5-1,1-1.4,1.6c-0.5,0.5-1.1,0.9-1.6,1.4c-1.9,1.9-3.5,4-4.6,6.3c-1.2-3.4-3.1-6.5-5.9-9.3c-4.8-4.8-10.7-7.2-17.5-7.2
	c-3.9,0-7.4,0.8-10.6,2.3v-0.6H110l-2.9,2.9v-2.9H94.7v0.6c-3.2-1.6-6.7-2.3-10.6-2.3c-6.8,0-12.7,2.4-17.5,7.2
	c-0.5,0.5-1,1-1.4,1.6c-0.5,0.5-1.1,0.9-1.6,1.4c-0.8,0.8-1.6,1.7-2.2,2.6V0h-9.5l-3,3l-17,22.7L12.6,0H3L0,3v58.3h12.4l3-3v-27
	l11,14.8H32l3-3L46,28.5v32.9h12.4l3-3v-5.1c0.7,0.9,1.4,1.8,2.2,2.6c4.8,4.8,10.7,7.2,17.5,7.2c3.9,0,7.4-0.8,10.6-2.3v0.6h12.4
	l2.9-2.9v2.9h12.4l3-3V28.9c0.2-0.3,0.3-0.5,0.5-0.7c2.1-1.5,4.4-2.2,7.1-2.2c3.4,0,6.3,1.2,8.7,3.6c2.4,2.4,3.6,5.3,3.6,8.8v23
	h12.4l3-3v-6.4c0.9,1.4,2,2.7,3.2,3.9c4.8,4.8,10.7,7.2,17.5,7.2c3.8,0,7.4-0.8,10.6-2.3c-0.1,2.3-0.8,4.4-2,6.2
	c-1.9,1.3-4,1.9-6.4,1.9l-3,3v12.4c6.6,0,12.2-2.3,16.8-7c0.5-0.5,1-1.1,1.5-1.6c0.5-0.4,1-0.9,1.5-1.4c4.7-4.6,7-10.3,7-16.9v-5.7
	c0.9,1.4,2,2.8,3.3,4.1c4.8,4.8,10.7,7.2,17.5,7.2s12.7-2.4,17.5-7.2c0.5-0.5,1-1,1.4-1.6c0.5-0.5,1.1-0.9,1.6-1.4
	C250.6,48,253,42.2,253,35.4z M228.3,47.7c-3.4,0-6.4-1.2-8.8-3.6c-2.4-2.4-3.6-5.3-3.6-8.7c0-2.7,0.8-5.1,2.2-7.1
	c2.1-1.5,4.4-2.2,7.1-2.2c3.4,0,6.3,1.2,8.7,3.6c2.4,2.4,3.6,5.3,3.6,8.8c0,2.7-0.8,5-2.3,7.1C233.3,47,230.9,47.7,228.3,47.7z
	 M178.5,26c3.4,0,6.3,1.2,8.8,3.6c0.7,0.7,1.3,1.5,1.8,2.3v12.8c-0.2,0.3-0.4,0.5-0.5,0.8c-2.1,1.5-4.4,2.2-7.1,2.2
	c-3.4,0-6.4-1.2-8.8-3.6c-2.4-2.4-3.6-5.3-3.6-8.7c0-2.7,0.8-5.1,2.2-7.1C173.4,26.7,175.8,26,178.5,26z M81.1,26
	c3.4,0,6.3,1.2,8.8,3.6c0.7,0.7,1.3,1.5,1.8,2.3v12.8c-0.2,0.3-0.4,0.5-0.5,0.8c-2.1,1.5-4.4,2.2-7.1,2.2c-3.4,0-6.4-1.2-8.8-3.6
	c-2.4-2.4-3.6-5.3-3.6-8.7c0-2.7,0.8-5.1,2.2-7.1C76,26.7,78.4,26,81.1,26z"/>
<g>
	<path class="st1" d="M12.6,0.2l19.6,26.2L51.8,0.2h9.5v58.3H49V24.6L35,43.3h-5.7l-14-18.8v34H3V0.2H12.6z"/>
	<path class="st1" d="M94.7,57.9c-3.2,1.6-6.7,2.3-10.6,2.3c-6.8,0-12.7-2.4-17.5-7.2c-4.8-4.8-7.2-10.7-7.2-17.5s2.4-12.7,7.2-17.5
		c4.8-4.8,10.7-7.2,17.5-7.2c3.9,0,7.4,0.8,10.6,2.3v-0.6h12.4v46H94.7V57.9z M94.7,41.9V29.1c-0.5-0.8-1.1-1.6-1.8-2.3
		c-2.5-2.4-5.4-3.6-8.8-3.6c-3.4,0-6.4,1.2-8.8,3.6c-2.4,2.4-3.6,5.3-3.6,8.8c0,3.4,1.2,6.3,3.6,8.7c2.4,2.4,5.3,3.6,8.8,3.6
		c3.4,0,6.3-1.2,8.8-3.7C93.6,43.5,94.2,42.7,94.7,41.9z"/>
	<path class="st1" d="M122.3,29.1v29.4H110v-46h12.4v0.6c3.2-1.6,6.7-2.3,10.6-2.3c6.8,0,12.7,2.4,17.5,7.2
		c4.8,4.8,7.2,10.7,7.2,17.5v23h-12.4v-23c0-3.4-1.2-6.4-3.6-8.8c-2.4-2.4-5.3-3.6-8.7-3.6c-3.4,0-6.4,1.2-8.8,3.6
		C123.5,27.5,122.9,28.2,122.3,29.1z"/>
	<path class="st1" d="M192.1,57.9c-3.3,1.6-6.8,2.3-10.6,2.3c-6.8,0-12.7-2.4-17.5-7.2c-4.8-4.8-7.2-10.7-7.2-17.5
		s2.4-12.7,7.2-17.5c4.8-4.8,10.7-7.2,17.5-7.2c3.9,0,7.4,0.8,10.6,2.3v-0.6h12.4v45.1c0,6.6-2.3,12.2-7,16.9
		c-4.7,4.6-10.3,7-16.8,7V69.1c3.2,0,5.8-1.1,8-3.3C190.8,63.6,192,61,192.1,57.9z M192.1,41.9V29.1c-0.5-0.8-1.1-1.6-1.8-2.3
		c-2.5-2.4-5.4-3.6-8.8-3.6c-3.4,0-6.4,1.2-8.8,3.6c-2.4,2.4-3.6,5.3-3.6,8.8c0,3.4,1.2,6.3,3.6,8.7c2.4,2.4,5.3,3.6,8.8,3.6
		c3.4,0,6.3-1.2,8.8-3.7C190.9,43.5,191.5,42.7,192.1,41.9z"/>
	<path class="st1" d="M245.8,18c4.8,4.8,7.2,10.7,7.2,17.5s-2.4,12.7-7.2,17.5c-4.8,4.8-10.7,7.2-17.5,7.2s-12.7-2.4-17.5-7.2
		c-4.8-4.8-7.2-10.7-7.2-17.5s2.4-12.7,7.2-17.5c4.8-4.8,10.7-7.2,17.5-7.2S240.9,13.2,245.8,18z M228.3,23.2
		c-3.4,0-6.4,1.2-8.8,3.6c-2.4,2.4-3.6,5.3-3.6,8.8c0,3.4,1.2,6.3,3.6,8.7c2.4,2.4,5.3,3.6,8.8,3.6c3.4,0,6.3-1.2,8.7-3.6
		c2.4-2.4,3.6-5.3,3.6-8.7c0-3.4-1.2-6.4-3.6-8.8C234.6,24.4,231.7,23.2,228.3,23.2z"/>
</g>
</svg>
